<?xml version="1.0" encoding="UTF-8" standalone="no"?>
<!-- Created with Inkscape (http://www.inkscape.org/) -->

<svg
   width="400"
   height="200"
   viewBox="0 0 105.83333 52.916665"
   version="1.1"
   id="svg5"
   xml:space="preserve"
   inkscape:version="1.3 (0e150ed6c4, 2023-07-21)"
   sodipodi:docname="australia.svg"
   xmlns:inkscape="http://www.inkscape.org/namespaces/inkscape"
   xmlns:sodipodi="http://sodipodi.sourceforge.net/DTD/sodipodi-0.dtd"
   xmlns="http://www.w3.org/2000/svg"
   xmlns:svg="http://www.w3.org/2000/svg"><sodipodi:namedview
     id="namedview7"
     pagecolor="#505050"
     bordercolor="#ffffff"
     borderopacity="1"
     inkscape:showpageshadow="0"
     inkscape:pageopacity="0"
     inkscape:pagecheckerboard="1"
     inkscape:deskcolor="#505050"
     inkscape:document-units="px"
     showgrid="false"
     inkscape:zoom="1"
     inkscape:cx="101.5"
     inkscape:cy="83"
     inkscape:window-width="1450"
     inkscape:window-height="1250"
     inkscape:window-x="528"
     inkscape:window-y="67"
     inkscape:window-maximized="0"
     inkscape:current-layer="layer1" /><defs
     id="defs2" /><g
     inkscape:label="Layer 1"
     inkscape:groupmode="layer"
     id="layer1"><rect
       style="fill:#ffffff;stroke-width:0.187088;stroke-linecap:round;stroke-linejoin:round;stop-color:#000000"
       id="rect179"
       width="105.83333"
       height="52.916664"
       x="0"
       y="0" /><rect
       style="fill:#ffffff;fill-opacity:0;stroke:#000000;stroke-width:0.188007;stroke-linecap:round;stroke-linejoin:round;stroke-dasharray:none;stroke-opacity:1;stop-color:#000000"
       id="rect297"
       width="105.64533"
       height="52.728657"
       x="0.094003446"
       y="0.094003282" /><path
       style="fill:#000066;fill-opacity:1;stroke-width:1.04303"
       d="M 0,39.754406 V 26.592178 l 8.98174,-4.476649 c 8.78841,-4.380284 9.01891,-4.476328 10.70769,-4.461728 l 1.72593,0.01492 -8.70431,4.379878 c -7.47706,3.762347 -8.55794,4.381982 -7.66624,4.394799 0.80137,0.01152 2.8649,-0.896534 9.04972,-3.982306 l 8.01165,-3.997228 v 3.997228 3.997228 h 0.828994 0.82898 V 21.083973 15.709627 H 11.88207 0 V 13.229159 10.748693 H 11.88207 23.764154 V 5.37435 4e-6 h 2.6251 2.62511 v 5.374346 5.374347 h 11.88207 11.88207 v 2.480466 2.480468 h -11.88207 -11.88207 v 5.374347 5.374346 h 0.96714 0.96715 v -3.997228 -3.997228 l 8.01165,3.997228 8.01165,3.997228 h 3.04144 3.04144 l -9.1e-4,-1.446939 -8.9e-4,-1.44694 -5.73289,-2.893879 -5.73289,-2.893879 5.73379,-0.07448 5.73379,-0.07448 V 13.229172 8.830636 l -5.73379,-0.07449 -5.73379,-0.07448 5.73289,-2.893879 5.73289,-2.893879 8.9e-4,-1.446939 9.1e-4,-1.44694 h 26.38926 26.389236 v 26.45832 26.458322 H 52.916674 0 Z m 80.171544,6.9784 0.86562,0.80949 -0.14443,-1.14096 -0.14441,-1.14095 1.14005,-0.18183 1.14006,-0.18182 -0.89411,-0.56463 c -1.02831,-0.64939 -1.04844,-0.71933 -0.45143,-1.56944 0.55639,-0.7923 0.3942,-0.96447 -0.56571,-0.60047 -0.93551,0.35477 -1.16813,0.21722 -1.398,-0.82664 -0.21757,-0.98802 -0.57715,-0.85684 -0.83273,0.30378 -0.13161,0.59765 -0.30618,0.79698 -0.59959,0.68468 -0.22765,-0.0871 -0.7351,-0.23882 -1.12765,-0.33709 l -0.71375,-0.17867 0.615,0.9925 0.615,0.99248 -0.88297,0.45543 c -0.67977,0.3506 -0.79422,0.51146 -0.49733,0.69896 0.21211,0.13396 0.6818,0.24546 1.04377,0.24778 0.61078,0.004 0.64716,0.0858 0.50578,1.13699 l -0.15233,1.13277 0.80677,-0.77092 0.80676,-0.77092 z m -52.0162,-1.73218 1.7451,1.71484 -0.17411,-1.37804 c -0.0958,-0.75791 -0.24187,-1.83125 -0.32469,-2.38517 l -0.15059,-1.00715 2.3686,-0.19678 c 1.30273,-0.10823 2.3683,-0.27515 2.36793,-0.3709 -3.6e-4,-0.0958 -0.87079,-0.66225 -1.93428,-1.25887 -1.0635,-0.596631 -1.93363,-1.192543 -1.93363,-1.324262 0,-0.131719 0.47574,-0.945819 1.05719,-1.809109 0.58145,-0.863292 1.14802,-1.724105 1.25903,-1.91292 0.1137,-0.193386 -0.7872,0.02042 -2.06306,0.489623 -1.2457,0.458106 -2.29278,0.798626 -2.32686,0.75671 -0.034,-0.04192 -0.34415,-0.944375 -0.68908,-2.005464 -0.34492,-1.061089 -0.69533,-2.047011 -0.77869,-2.190939 -0.0833,-0.143927 -0.48435,0.724237 -0.89113,1.929253 -0.47217,1.398724 -0.87859,2.178073 -1.12401,2.15536 -0.21144,-0.01957 -1.23682,-0.359974 -2.278634,-0.756457 -2.17212,-0.826639 -2.18387,-0.783196 -0.46925,1.735112 1.242454,1.824823 1.341544,1.59212 -1.36696,3.210103 -0.98787,0.59013 -1.60961,1.09899 -1.38164,1.13079 0.22797,0.0318 1.358,0.13587 2.51115,0.23123 l 2.096674,0.1734 -0.22997,1.56542 c -0.1265,0.86098 -0.29411,1.99951 -0.37249,2.53004 l -0.14251,0.96463 1.7404,-1.85265 1.74041,-1.85264 z m 56.0761,-15.021409 c 0.2671,-0.266406 0.4528,-0.266406 0.8805,0 0.76778,0.478239 0.91283,0.423554 0.72964,-0.275095 -0.10747,-0.409899 0.035,-0.820415 0.43043,-1.240234 l 0.59107,-0.62753 h -0.84718 c -0.69348,0 -0.88202,-0.137521 -1.03908,-0.757921 l -0.1919,-0.757921 -0.39954,0.757921 c -0.28207,0.535058 -0.61425,0.757921 -1.12971,0.757921 h -0.73016 l 0.59108,0.62753 c 0.39542,0.419819 0.5379,0.830335 0.43042,1.240234 -0.17612,0.671749 0.15379,0.804353 0.68443,0.275095 z m -18.09177,-4.898935 c 0.11296,0 0.51647,0.341066 0.8967,0.757921 l 0.69132,0.757921 -0.0901,-1.171332 c -0.0841,-1.091778 -0.0427,-1.17162 0.60798,-1.175552 0.6558,-0.004 1.84668,-0.526585 1.25078,-0.548903 -0.15199,-0.0057 -0.57577,-0.239957 -0.94177,-0.520591 l -0.66542,-0.510241 0.64522,-0.903783 0.64523,-0.903782 -0.71402,0.178744 c -0.39272,0.09831 -0.89965,0.249785 -1.12652,0.336615 -0.29045,0.111168 -0.509,-0.133829 -0.73876,-0.828186 -0.37566,-1.135316 -0.68886,-1.086609 -0.93593,0.145555 -0.129,0.643298 -0.285,0.819508 -0.61402,0.693578 -0.2426,-0.09286 -0.7624,-0.249254 -1.15512,-0.347562 l -0.71403,-0.178744 0.60154,0.842581 c 0.33085,0.46342 0.60153,0.913268 0.60153,0.999664 0,0.08639 -0.39114,0.358827 -0.86921,0.605402 -0.6701,0.345615 -0.78088,0.504118 -0.48358,0.691877 0.21211,0.133956 0.6785,0.245455 1.03642,0.247776 0.59121,0.0039 0.64118,0.104339 0.54613,1.098428 l -0.10462,1.094207 0.71245,-0.680796 c 0.39185,-0.374438 0.80488,-0.680797 0.91784,-0.680797 z m 25.85509,-2.915106 0.80676,0.770918 -0.15233,-1.132766 -0.15233,-1.132766 h 1.00353 c 1.22463,0 1.28913,-0.389756 0.16079,-0.97172 l -0.84274,-0.434662 0.6199,-1.000416 c 0.5424,-0.875327 0.55819,-0.976791 0.12626,-0.811474 -1.51493,0.579815 -1.76362,0.536805 -1.95634,-0.338357 -0.25632,-1.16399 -0.61572,-1.296552 -0.83354,-0.307441 -0.22986,1.043851 -0.46249,1.181403 -1.398,0.826648 -0.9908,-0.375719 -1.06586,-0.245216 -0.47706,0.829357 0.36759,0.67086 0.40569,0.930028 0.15049,1.023694 -0.18794,0.06898 -0.62316,0.359556 -0.96715,0.645726 l -0.62543,0.520306 1.17766,0.0092 1.17765,0.0092 -0.1785,1.171332 -0.1785,1.171332 0.86606,-0.809485 0.86605,-0.809484 z m -11.82322,-10.710128 0.86562,0.809485 -0.14443,-1.140952 -0.14441,-1.1409523 1.14005,-0.181828 1.14006,-0.181828 -0.89411,-0.564634 C 81.106014,8.404952 81.085884,8.335016 81.682894,7.484903 c 0.55639,-0.792304 0.3942,-0.964462 -0.56571,-0.600456 -0.93551,0.354755 -1.16813,0.217205 -1.398,-0.826648 -0.21757,-0.988016 -0.57715,-0.856842 -0.83273,0.303778 -0.13161,0.597646 -0.30618,0.796985 -0.59959,0.684683 -0.22765,-0.08713 -0.7351,-0.238825 -1.12765,-0.337092 l -0.71375,-0.17867 0.615,0.992494 0.615,0.992496 -0.88297,0.4554147 c -0.67977,0.350605 -0.79422,0.511469 -0.49733,0.69897 0.21211,0.133956 0.6818,0.245455 1.04377,0.247776 0.61078,0.004 0.64716,0.08571 0.50578,1.1369863 l -0.15233,1.132767 0.80677,-0.770919 0.80676,-0.770919 z m -36.23551,10.455747 -8.42798,-4.242099 1.72917,-0.0149 c 1.67267,-0.01441 1.95482,0.0977 8.63523,3.431246 6.7184,3.352518 6.90605,3.468592 6.90605,4.271917 0,0.454169 -0.0933,0.819053 -0.20724,0.810853 -0.11398,-0.0083 -3.99984,-1.923853 -8.63523,-4.257008 z M 0,20.534073 V 17.63888 h 5.71077 c 3.14092,0 5.65894,0.04812 5.59562,0.106942 -0.0633,0.05883 -2.63317,1.361655 -5.71077,2.895192 L 0,23.429264 Z M 0,5.924247 V 3.029056 l 5.59562,2.788249 c 3.0776,1.533537 5.64744,2.836374 5.71077,2.895192 0.0633,0.05883 -2.4547,0.106942 -5.59562,0.106942 H 0 Z M 6.8391,5.358435 C 0.19184,2.023329 0,1.903912 0,1.101341 0,0.647187 0.0933,0.282316 0.20725,0.290515 c 0.11398,0.0083 3.99983,1.923854 8.63523,4.257009 l 8.42797,4.242099 -1.79612,8.7e-5 C 13.72603,8.789793 13.49607,8.69842 6.8391,5.358435 Z M 40.343784,4.40972 c 8.57827,-4.316457 8.73031,-4.379878 10.50043,-4.379878 h 1.79613 l -8.70431,4.379878 c -8.57826,4.316456 -8.73032,4.379878 -10.50044,4.379878 h -1.79612 z M 14.09269,3.996309 6.21737,0.029759 14.16178,0.014879 22.10618,9e-6 v 3.996309 c 0,2.19797 -0.0311,3.989612 -0.069,3.981429 -0.038,-0.0083 -3.61298,-1.799828 -7.94441,-3.981429 z m 16.855964,9.5e-4 V 0 h 7.92138 c 4.35676,0 7.86957,0.04822 7.80624,0.107174 -0.0633,0.05895 -3.62794,1.857714 -7.92138,3.997259 l -7.80624,3.890086 z"
       id="path1" /><path
       style="fill:#cc0000;fill-opacity:1;stroke-width:1.04303"
       d="M 0,26.592178 8.9817411,22.115529 C 17.770151,17.735245 18.000651,17.639201 19.689431,17.653801 l 1.72593,0.01492 -8.70431,4.379878 c -7.47706,3.762347 -8.8722248,4.535115 -7.9804327,4.535115 39.3292147,0 19.1390717,-0.125386 48.3242167,-0.125386 l -9.1e-4,-1.446939 V 1.446969 l 9.1e-4,-1.44694 0.0024,26.45832 z m 43.936035,-4.681383 -8.42798,-4.242099 1.72917,-0.0149 c 1.67267,-0.01441 1.95482,0.0977 8.63523,3.431246 6.7184,3.352518 6.90605,3.468592 6.90605,4.271917 0,0.454169 -0.0933,0.819053 -0.20724,0.810853 -0.11398,-0.0083 -3.99984,-1.923853 -8.63523,-4.257008 z M 6.839101,5.358435 C 0.19184,2.023329 0,1.903912 0,1.101341 0,0.647187 0.0933,0.282316 0.20725,0.290515 c 0.11398,0.0083 3.999831,1.923854 8.6352311,4.257009 l 8.4279699,4.242099 -1.79612,8.7e-5 c -1.7483,8.3e-5 -1.97826,-0.09129 -8.63523,-3.431275 z M 40.343785,4.40972 c 8.57827,-4.316457 8.73031,-4.379878 10.50043,-4.379878 h 1.79613 l -8.70431,4.379878 c -8.57826,4.316456 -8.73032,4.379878 -10.50044,4.379878 h -1.79612 z"
       id="path1-7-3"
       sodipodi:nodetypes="csscssccccccccssscscsscscsssscsscs" /><path
       style="fill:#cc0000;fill-opacity:1;stroke-width:1.04303"
       d="m 22.935175,26.45832 h 0.82898 V 21.083973 15.709627 H 11.882071 0 V 13.229159 10.748693 H 11.882071 23.764155 V 5.37435 4e-6 h 2.6251 2.62511 v 5.374346 5.374347 h 11.88207 11.88207 v 2.480466 2.480468 h -11.88207 -11.88207 v 5.374347 5.374346 h 0.96714 z"
       id="path1-7-9"
       sodipodi:nodetypes="cccccccccccccccccccccccccc" /></g></svg>
