<?xml version="1.0" encoding="UTF-8" standalone="no"?>
<!-- Created with Inkscape (http://www.inkscape.org/) -->

<svg
   width="400"
   height="400"
   viewBox="0 0 105.83333 105.83333"
   version="1.1"
   id="svg5"
   xml:space="preserve"
   inkscape:version="1.2.2 (b0a8486541, 2022-12-01)"
   sodipodi:docname="japanmalaysia.svg"
   xmlns:inkscape="http://www.inkscape.org/namespaces/inkscape"
   xmlns:sodipodi="http://sodipodi.sourceforge.net/DTD/sodipodi-0.dtd"
   xmlns="http://www.w3.org/2000/svg"
   xmlns:svg="http://www.w3.org/2000/svg"><sodipodi:namedview
     id="namedview7"
     pagecolor="#505050"
     bordercolor="#ffffff"
     borderopacity="1"
     inkscape:showpageshadow="0"
     inkscape:pageopacity="0"
     inkscape:pagecheckerboard="1"
     inkscape:deskcolor="#505050"
     inkscape:document-units="px"
     showgrid="false"
     inkscape:zoom="1.6501738"
     inkscape:cx="290.87845"
     inkscape:cy="191.79798"
     inkscape:window-width="2514"
     inkscape:window-height="1376"
     inkscape:window-x="0"
     inkscape:window-y="0"
     inkscape:window-maximized="1"
     inkscape:current-layer="layer1" /><defs
     id="defs2" /><g
     inkscape:label="Layer 1"
     inkscape:groupmode="layer"
     id="layer1"><rect
       style="fill:#ffffff;stroke-width:0.264583;stroke-linecap:round;stroke-linejoin:round;stop-color:#000000"
       id="rect179"
       width="105.83333"
       height="105.83333"
       x="0"
       y="0" /><g
       id="g2181"
       transform="translate(15.010265,127.97801)"><rect
         style="fill:#000066;fill-opacity:1;stroke-width:0.409499;stroke-linecap:round;stroke-linejoin:round;stop-color:#000000"
         id="rect1718"
         width="52.916664"
         height="35.71875"
         x="-15.010265"
         y="-75.061348" /><path
         id="path125"
         style="fill:#ffcc00;fill-opacity:1;stroke-width:0.0377975"
         d="m 6.8369989,-68.526668 c -0.80463,0.0065 -1.61321,0.09779 -2.41277,0.275952 -1.5984,0.356158 -3.29743,1.170772 -4.57387997,2.192631 -0.43207,0.345891 -1.22501003,1.122882 -1.59577003,1.563729 -1.41986,1.688239 -2.29364,3.701251 -2.58485,5.953124 -0.0864,0.66797 -0.0864,2.015588 0,2.683557 0.29121,2.251875 1.16499,4.264887 2.58485,5.953125 0.3726,0.443034 1.16609003,1.220018 1.59577003,1.562696 1.73810997,1.386163 3.94089997,2.254331 6.20220997,2.443778 0.52893,0.04431 1.68648,0.01581 2.2505,-0.05529 1.61932,-0.204116 3.2431801,-0.774138 4.5702701,-1.604036 0.5749,-0.359518 0.61379,-0.400081 0.23823,-0.250114 -0.71659,0.286153 -1.65511,0.521908 -2.50786,0.629936 -0.55426,0.07021 -1.8622401,0.05983 -2.4375801,-0.01912 -2.26104,-0.310237 -4.24161,-1.28228 -5.8229,-2.85874 -1.57157997,-1.566786 -2.53104997,-3.464092 -2.87785997,-5.689058 -0.11866,-0.761249 -0.11866,-2.149165 0,-2.910417 0.34367,-2.204814 1.29733,-4.10231 2.84064997,-5.652884 0.55753,-0.560138 0.94306,-0.87564 1.58905,-1.301213 1.29941,-0.856019 2.64718,-1.361254 4.25194,-1.593184 0.55324,-0.07996 1.8952701,-0.09037 2.4567001,-0.01912 0.85357,0.108314 1.79148,0.343867 2.50786,0.629936 0.22292,0.08902 0.29779,0.10775 0.23461,0.05891 -0.23206,-0.179358 -0.90035,-0.570326 -1.40043,-0.819588 -1.58834,-0.791686 -3.3385401,-1.188967 -5.1087401,-1.174605 z m 11.4210101,2.06654 c -0.0119,0 -0.19818,1.212183 -0.41393,2.693376 -0.21576,1.481191 -0.40328,2.734062 -0.41651,2.784326 -0.0204,0.07763 -0.26451,-0.26542 -1.62264,-2.27738 -0.87942,-1.302783 -1.60281,-2.368331 -1.60765,-2.368331 -0.005,0 0.35369,1.152134 0.79737,2.560567 0.96239,3.055171 0.92319,2.925826 0.88986,2.906799 -0.0147,-0.0084 -1.05583,-0.614768 -2.31355,-1.347721 -1.25771,-0.732955 -2.36315,-1.375828 -2.4567,-1.428854 l -0.17001,-0.09663 0.0811,0.09198 c 0.0448,0.0505 0.92442,0.992267 1.95492,2.092895 1.03051,1.100628 1.87016,2.004833 1.86552,2.00918 -0.005,0.0044 -1.25022,-0.0927 -2.76779,-0.215491 -1.51758,-0.12279 -2.7933901,-0.218698 -2.8349701,-0.213424 -0.0416,0.0053 0.26481,0.140013 0.68058,0.299724 0.4157701,0.15971 1.3764801,0.531219 2.1352701,0.825272 0.75878,0.294052 1.60505,0.620773 1.8805,0.726054 0.27545,0.10528 0.50075,0.20318 0.50075,0.218075 0,0.01489 -0.2253,0.113311 -0.50075,0.218591 -0.27545,0.105282 -1.12172,0.432001 -1.8805,0.726054 -0.75879,0.294052 -1.7195,0.66556 -2.1352701,0.825272 -0.41577,0.159712 -0.72216,0.29445 -0.68058,0.299724 0.0416,0.0053 1.3173901,-0.09063 2.8349701,-0.213424 1.51757,-0.12279 2.76316,-0.219839 2.76779,-0.215491 0.005,0.0044 -0.83501,0.908552 -1.86552,2.00918 -1.0305,1.100627 -1.91017,2.042393 -1.95492,2.092895 l -0.0811,0.09198 0.17001,-0.09664 c 0.0936,-0.05303 1.19899,-0.6959 2.4567,-1.428853 1.25772,-0.732956 2.29888,-1.339867 2.31355,-1.348238 0.0334,-0.01908 0.0714,-0.1429 -0.88986,2.907316 -0.44387,1.408431 -0.80292,2.560567 -0.79789,2.560567 0.005,0 0.72875,-1.065547 1.60817,-2.368331 1.35813,-2.01196 1.60222,-2.355007 1.62264,-2.27738 0.0132,0.05026 0.20075,1.303133 0.41651,2.784326 0.21575,1.481193 0.40207,2.692859 0.41393,2.692859 0.0119,0 0.19818,-1.211666 0.41393,-2.692859 0.21576,-1.481192 0.40316,-2.734645 0.41651,-2.785359 0.0207,-0.07874 0.25596,0.25085 1.60921,2.255676 0.87169,1.291384 1.59021,2.342889 1.5968,2.336291 0.009,-0.0089 -1.56595,-5.066349 -1.67587,-5.3821 -0.011,-0.03157 0.0435,-0.01543 0.14315,0.04237 0.0885,0.05135 1.19019,0.692796 2.44791,1.425752 1.25771,0.732955 2.30361,1.34182 2.3244,1.352889 0.0537,0.02859 0.0671,0.04364 -1.99832,-2.163692 -1.03018,-1.100945 -1.86943,-2.005282 -1.86501,-2.009696 0.004,-0.0044 1.25853,0.09239 2.7864,0.21549 1.52788,0.123099 2.80279,0.219321 2.83342,0.213941 0.0451,-0.0079 -2.20838,-0.893036 -4.77077,-1.874304 -0.24427,-0.09354 -0.44442,-0.181452 -0.44442,-0.19482 0,-0.01337 0.20015,-0.100762 0.44442,-0.194304 2.56239,-0.981267 4.81581,-1.866908 4.77077,-1.874821 -0.0306,-0.0054 -1.30554,0.09136 -2.83342,0.214457 -1.52787,0.1231 -2.78199,0.219905 -2.7864,0.215491 -0.004,-0.0044 0.83483,-0.908749 1.86501,-2.009696 2.06792,-2.209991 2.05189,-2.192332 1.99832,-2.164209 -0.0208,0.01092 -1.06669,0.619716 -2.3244,1.352889 -1.25772,0.733173 -2.35943,1.374982 -2.44791,1.426269 -0.0997,0.05779 -0.15416,0.07397 -0.14315,0.04238 0.10992,-0.31575 1.68473,-5.373242 1.67587,-5.3821 -0.007,-0.0066 -0.72511,1.044905 -1.5968,2.336291 -1.35325,2.004825 -1.5885,2.334411 -1.60921,2.255676 -0.0133,-0.05071 -0.20075,-1.304168 -0.41651,-2.785359 -0.21575,-1.481193 -0.40207,-2.693376 -0.41393,-2.693376 z"
         sodipodi:nodetypes="ssssscsssssssssssssssssssssssscsscccscssssssssssscscccssssssssssscssssscssssssscssssccssss" /><rect
         style="fill:#cc0000;fill-opacity:1;stroke-width:0.284915;stroke-linecap:round;stroke-linejoin:round;stop-color:#000000"
         id="rect1772"
         width="52.916664"
         height="3.9687498"
         x="37.906399"
         y="-75.061348" /><rect
         style="fill:#cc0000;fill-opacity:1;stroke-width:0.284915;stroke-linecap:round;stroke-linejoin:round;stop-color:#000000"
         id="rect1772-3"
         width="52.916664"
         height="3.9687498"
         x="37.906399"
         y="-67.123848" /><rect
         style="fill:#cc0000;fill-opacity:1;stroke-width:0.284915;stroke-linecap:round;stroke-linejoin:round;stop-color:#000000"
         id="rect1772-6"
         width="52.916664"
         height="3.9687498"
         x="37.906399"
         y="-59.186348" /><rect
         style="fill:#cc0000;fill-opacity:1;stroke-width:0.284915;stroke-linecap:round;stroke-linejoin:round;stop-color:#000000"
         id="rect1772-7"
         width="52.916664"
         height="3.9687498"
         x="37.906399"
         y="-51.248848" /><rect
         style="fill:#cc0000;fill-opacity:1;stroke-width:0.284915;stroke-linecap:round;stroke-linejoin:round;stop-color:#000000"
         id="rect1772-5"
         width="52.916664"
         height="3.9687498"
         x="37.906399"
         y="-43.311348" /><rect
         style="fill:#cc0000;fill-opacity:1;stroke-width:0.402931;stroke-linecap:round;stroke-linejoin:round;stop-color:#000000"
         id="rect1772-35"
         width="105.83333"
         height="3.9687498"
         x="-15.010265"
         y="-35.373848" /><rect
         style="fill:#cc0000;fill-opacity:1;stroke-width:0.402931;stroke-linecap:round;stroke-linejoin:round;stop-color:#000000"
         id="rect1772-62"
         width="105.83333"
         height="3.9687498"
         x="-15.010265"
         y="-27.436348" /></g><circle
       style="fill:#cc0000;fill-opacity:1;stroke-width:0.264583;stroke-linecap:round;stroke-linejoin:round;stop-color:#000000"
       id="path2235"
       cx="52.916664"
       cy="26.458332"
       r="15.874999" /><rect
       style="fill:#ffffff;fill-opacity:0;stroke:#000000;stroke-width:0.265923;stroke-linecap:round;stroke-linejoin:round;stroke-dasharray:none;stroke-opacity:1;stop-color:#000000"
       id="rect297"
       width="105.56741"
       height="105.56741"
       x="0.13296133"
       y="0.13296117" /></g></svg>
