<?xml version="1.0" encoding="UTF-8" standalone="no"?>
<!-- Created with Inkscape (http://www.inkscape.org/) -->

<svg
   width="400"
   height="400"
   viewBox="0 0 105.83333 105.83333"
   version="1.1"
   id="svg5"
   xml:space="preserve"
   inkscape:version="1.2.2 (b0a8486541, 2022-12-01)"
   sodipodi:docname="plane.svg"
   xmlns:inkscape="http://www.inkscape.org/namespaces/inkscape"
   xmlns:sodipodi="http://sodipodi.sourceforge.net/DTD/sodipodi-0.dtd"
   xmlns="http://www.w3.org/2000/svg"
   xmlns:svg="http://www.w3.org/2000/svg"><sodipodi:namedview
     id="namedview7"
     pagecolor="#505050"
     bordercolor="#ffffff"
     borderopacity="1"
     inkscape:showpageshadow="0"
     inkscape:pageopacity="0"
     inkscape:pagecheckerboard="1"
     inkscape:deskcolor="#505050"
     inkscape:document-units="px"
     showgrid="false"
     inkscape:zoom="3.3003476"
     inkscape:cx="273.00155"
     inkscape:cy="252.54916"
     inkscape:window-width="2514"
     inkscape:window-height="1376"
     inkscape:window-x="0"
     inkscape:window-y="0"
     inkscape:window-maximized="1"
     inkscape:current-layer="layer1" /><defs
     id="defs2" /><g
     inkscape:label="Layer 1"
     inkscape:groupmode="layer"
     id="layer1"><path
       style="fill:#ffffff;fill-opacity:1;stroke:#000000;stroke-width:1.54171;stroke-linecap:round;stroke-linejoin:round;stroke-dasharray:none;stroke-opacity:1"
       d="m 48.90605,88.950042 c -0.09116,-0.07167 -0.200749,-0.236464 -0.243546,-0.366135 -0.10121,-0.306689 -0.04299,-1.607509 0.09357,-2.090626 0.05531,-0.195653 0.846665,-4.386799 1.758578,-9.31366 0.911912,-4.926863 2.188515,-11.824788 2.836895,-15.328736 0.648379,-3.503939 1.171759,-6.38034 1.163067,-6.392004 -0.01919,-0.0257 -0.236814,0.06972 -4.0723,1.786194 C 36.857591,63.324622 27.54465,66.433918 20.272546,67.317803 19.087832,67.461794 16.67113,67.515668 15.737033,67.418916 13.372115,67.173937 11.850285,66.544805 10.769475,65.365295 10.319119,64.873813 10.100243,64.456433 9.4066521,62.766506 7.9121752,59.125261 5.1250923,52.834441 2.8816446,48.038695 2.4151807,47.041547 2.3410064,46.637624 2.5146627,46.040275 c 0.084845,-0.291872 0.1842486,-0.450792 0.4445677,-0.710767 0.6400112,-0.639172 1.5792571,-0.949422 2.8900734,-0.954643 1.5264913,-0.0059 2.354335,0.276965 3.4926215,1.194165 0.4090861,0.329632 1.6460587,1.236879 2.7488277,2.016106 2.30056,1.625612 3.739956,2.689021 4.546415,3.358835 2.240081,1.860532 3.378046,2.268906 4.895014,1.756627 0.831046,-0.280642 15.7527,-6.905769 53.134727,-23.591511 8.602633,-3.839854 8.705329,-3.883552 10.251492,-4.362618 2.473347,-0.766351 4.49117,-1.077306 6.98525,-1.076451 2.873134,7.18e-4 5.100159,0.443692 7.509458,1.492803 1.930551,0.840641 3.788691,2.289135 4.504511,3.511458 0.44611,0.761762 0.31425,1.163961 -0.72219,2.202694 -1.58643,1.589952 -4.776654,3.623314 -10.418622,6.640569 -3.925535,2.09932 -11.841741,5.988151 -17.464677,8.579509 l -0.810042,0.373308 -1.045524,2.273467 c -0.57504,1.250401 -2.912905,6.333633 -5.195263,11.296071 -2.282356,4.962438 -5.473633,11.904019 -7.091726,15.425746 -3.104295,6.756393 -3.353961,7.274518 -3.898276,8.09011 -1.086259,1.627617 -2.799242,3.294204 -4.012876,3.904185 -0.657271,0.330343 -3.861811,1.62047 -4.025088,1.62047 -0.08885,0 -0.236132,-0.05867 -0.327286,-0.130366 z M 31.616303,36.733897 c -3.632442,-2.253624 -6.832853,-4.254814 -7.112037,-4.447091 -0.584415,-0.402492 -1.259779,-1.012452 -1.525737,-1.377975 -0.227085,-0.312097 -0.241374,-0.610742 -0.038,-0.794617 0.233921,-0.211515 3.462626,-1.849967 3.954475,-2.006756 0.853467,-0.272067 1.938506,-0.360877 3.947413,-0.323111 1.922341,0.03612 2.740448,0.121994 3.724018,0.390766 0.703796,0.192326 18.450572,5.869986 18.510791,5.922085 0.03418,0.02957 -14.279728,6.526623 -14.759456,6.699287 -0.05767,0.02076 -2.775526,-1.626877 -6.701456,-4.062588 z"
       id="path4528"
       sodipodi:nodetypes="ssssssssssssssssssssssssssscsssssssssssssssss" /></g></svg>
